# xmcd
#
# Track frame offsets: 
#        182
#        17165
#        42557
#        58645
#        70200
#        83045
#        94067
#        131870
#        152470
#
# Disc length: 2281 seconds
#
# Revision: 3
# Processed by: cddbd v1.5.1PL2 Copyright (c) Steve Scherf et al.
# Submitted via: ExactAudioCopy v0.95b3
#
DISCID=7308e709
DTITLE=Edgar Meyer - Love Of A Lifetime
DYEAR=1900
DGENRE=blues
TTITLE0=Strollin' (With My Moose)
TTITLE1=Timeless
TTITLE2=Carefree
TTITLE3=She Loves Me, She Loves Me Not
TTITLE4=My Funny Valentine
TTITLE5=Road To Chichen Itza, The
TTITLE6=Plumed Serpent, The
TTITLE7=Mountaintop, The
TTITLE8=Itsa Chicken
EXTD=
EXTT0=
EXTT1=
EXTT2=
EXTT3=
EXTT4=
EXTT5=
EXTT6=
EXTT7=
EXTT8=
PLAYORDER=
